<svg id="Layer_1" data-name="Layer 1" xmlns="http://www.w3.org/2000/svg" viewBox="0 0 48 48"><path d="M9.85,33.91a.9.9,0,0,1,.9-.9H28.46a9,9,0,1,0,0-18H14.35a.9.9,0,0,1,0-1.79H28.46A10.65,10.65,0,0,1,39.48,24a10.7,10.7,0,0,1-11,10.85H10.75A.89.89,0,0,1,9.85,33.91Z"/><path d="M34.16,24a5.39,5.39,0,0,0-5.7-5.44H17.88a.9.9,0,1,1,0-1.79H28.46A7.12,7.12,0,0,1,36,24a7.25,7.25,0,0,1-7.49,7.33H10.75a.9.9,0,1,1,0-1.79H28.46A5.44,5.44,0,0,0,34.16,24Z"/><path d="M43,24A14.14,14.14,0,0,1,28.46,38.32H10.83a.9.9,0,0,1,0-1.79H28.46A12.39,12.39,0,0,0,41.21,24c0-7.12-5.48-12.48-12.75-12.48H10.83a.9.9,0,0,1,0-1.79H28.46C36.75,9.68,43,15.81,43,24Z"/><path d="M16.68,20.42h-1L15,20.37a5.32,5.32,0,0,1-5-4.76L10,14.93V13.69a.08.08,0,1,0-.15,0v1.24l-.05.68a5.32,5.32,0,0,1-5,4.76l-.67.05h-1a.07.07,0,1,0,0,.14h1l.67.05a5.31,5.31,0,0,1,5,4.76l.05.68v1.24a.08.08,0,0,0,.08.07.08.08,0,0,0,.07-.07V26.05l.05-.68a5.31,5.31,0,0,1,5-4.76l.67-.05h1a.07.07,0,1,0,0-.14Z"/></svg>